 <svg  version="1.0" xmlns="http://www.w3.org/2000/svg"  width="150.000000pt" height="91.000000pt" viewBox="0 0 150.000000 91.000000"  preserveAspectRatio="xMidYMid meet">  <g transform="translate(0.000000,91.000000) scale(0.100000,-0.100000)" fill="#403078" stroke="none"> <path d="M231 900 c-89 -19 -164 -81 -205 -170 -29 -64 -27 -176 4 -248 26 -60 102 -134 155 -152 31 -10 34 -15 37 -53 3 -41 4 -42 47 -48 24 -3 71 -3 105 0 l61 6 3 184 c2 127 -1 188 -9 197 -8 10 -38 14 -104 14 -103 0 -105 -1 -105 -68 l-1 -37 -19 24 c-39 46 -17 136 40 166 34 18 83 19 112 4 16 -8 19 -8 16 2 -6 19 -55 32 -93 25 -103 -20 -149 -154 -75 -221 11 -10 20 -31 20 -47 0 -29 0 -29 -24 -11 -61 45 -87 153 -53 219 30 58 104 104 164 104 43 -1 107 -34 136 -71 17 -21 27 -28 27 -18 0 16 -53 71 -85 86 -90 44 -209 4 -255 -87 -25 -48 -26 -129 -4 -176 9 -19 34 -50 55 -68 22 -18 39 -38 39 -44 0 -37 -80 26 -115 89 -108 198 103 412 305 309 50 -26 98 -85 112 -137 6 -24 14 -43 19 -43 17 0 9 36 -18 91 -67 130 -213 174 -345 102 -109 -60 -153 -196 -102 -320 18 -43 86 -111 119 -119 16 -4 25 -13 25 -25 0 -19 -1 -19 -39 0 -51 27 -124 110 -139 159 -56 185 74 366 263 365 144 -1 257 -108 272 -259 8 -77 27 -69 21 9 -15 182 -183 305 -367 267z m189 -475 l0 -135 -90 0 -90 0 0 135 0 135 90 0 90 0 0 -135z"/> <path d="M1247 773 c-4 -3 -4 -25 0 -49 6 -46 -4 -57 -27 -29 -21 25 -76 18 -112 -14 -27 -24 -33 -36 -33 -71 0 -99 135 -137 180 -51 10 21 15 58 15 120 0 82 -7 111 -23 94z m-24 -111 c22 -19 22 -79 0 -104 -23 -25 -77 -24 -103 4 -64 69 31 163 103 100z"/> <path d="M610 755 c0 -10 10 -15 30 -15 l30 0 0 -115 c0 -98 2 -115 16 -115 13 0 15 16 12 115 l-3 114 30 3 c58 6 29 23 -42 26 -60 2 -73 0 -73 -13z"/> <path d="M807 693 c-11 -11 -17 -13 -17 -5 0 7 -7 12 -15 12 -12 0 -15 -17 -15 -95 0 -78 3 -95 15 -95 12 0 15 14 15 69 0 62 3 72 25 89 24 19 33 42 17 42 -4 0 -15 -8 -25 -17z"/> <path d="M883 675 c-32 -32 -35 -40 -30 -73 12 -70 110 -122 147 -77 15 18 31 20 28 4 -2 -6 3 -14 10 -16 9 -3 12 14 12 67 0 66 -2 74 -29 101 -43 43 -92 40 -138 -6z m120 -13 c21 -19 22 -70 1 -100 -21 -30 -76 -30 -104 0 -64 69 31 163 103 100z"/> <path d="M1337 699 c-21 -12 -47 -61 -47 -89 0 -52 49 -100 101 -100 28 0 75 26 83 46 10 27 -2 29 -27 6 -30 -28 -80 -29 -107 -2 -34 34 -24 40 65 40 70 0 85 3 85 15 0 25 -28 73 -49 85 -25 13 -81 12 -104 -1z m106 -37 c32 -28 20 -37 -53 -37 -73 0 -85 9 -52 37 34 31 70 31 105 0z"/> <path d="M464 461 c-9 -9 9 -21 32 -21 24 0 24 0 24 -105 0 -63 4 -105 10 -105 6 0 10 41 10 104 0 104 0 105 25 108 14 2 25 7 25 12 0 9 -117 15 -126 7z"/> <path d="M1068 463 c-1 -5 -2 -59 -2 -120 -1 -85 2 -113 11 -113 7 0 13 8 13 18 0 10 6 26 13 36 12 17 15 15 41 -18 15 -20 34 -36 42 -36 15 0 20 16 7 22 -5 2 -21 17 -37 35 l-29 32 32 38 c32 39 38 53 21 53 -5 0 -26 -22 -47 -50 -20 -28 -40 -50 -43 -50 -3 0 -4 36 -2 80 2 52 0 80 -7 80 -6 0 -12 -3 -13 -7z"/> <path d="M728 403 c-15 -9 -32 -30 -39 -45 -31 -75 54 -155 123 -115 15 9 28 12 28 7 0 -6 5 -10 10 -10 6 0 10 26 10 59 0 48 -5 65 -22 85 -30 34 -75 41 -110 19z m92 -35 c39 -42 14 -108 -42 -108 -41 0 -68 25 -68 63 0 62 68 90 110 45z"/> <path d="M600 320 c0 -73 3 -90 15 -90 12 0 15 14 15 65 0 58 3 66 26 81 17 11 22 20 15 27 -7 7 -16 6 -27 -4 -13 -11 -18 -11 -21 -1 -3 6 -9 12 -14 12 -5 0 -9 -40 -9 -90z"/> <path d="M905 385 c-50 -49 -20 -137 50 -151 37 -7 95 20 95 43 0 17 -15 16 -30 -2 -19 -23 -76 -19 -100 7 -27 29 -25 54 5 83 30 30 64 32 96 4 16 -14 25 -17 28 -8 7 21 -39 49 -81 49 -28 0 -46 -7 -63 -25z"/> <path d="M1236 379 c-14 -17 -26 -39 -26 -49 0 -59 55 -107 109 -95 33 7 84 55 59 55 -9 0 -21 -7 -28 -15 -17 -21 -73 -19 -93 3 -29 32 -19 37 58 35 83 -2 88 3 60 56 -16 33 -33 41 -80 41 -25 0 -40 -8 -59 -31z m114 -14 l23 -25 -66 0 c-70 0 -82 9 -45 34 32 23 61 20 88 -9z"/> <path d="M1408 404 c-3 -5 -5 -46 -6 -91 -1 -67 2 -83 13 -83 12 0 15 15 15 64 0 59 2 66 27 84 32 23 23 43 -9 23 -16 -10 -22 -10 -28 -1 -4 7 -10 8 -12 4z"/> <path d="M600 79 c0 -71 2 -80 18 -77 13 3 17 13 16 46 0 30 3 42 13 42 9 0 14 -9 12 -22 -5 -55 2 -58 147 -58 l134 0 12 28 12 27 3 -30 4 -30 255 2 255 2 3 76 4 75 -444 0 -444 0 0 -81z m250 55 c0 -3 -5 -14 -10 -25 -7 -13 -7 -19 0 -19 5 0 10 5 10 10 0 6 7 10 15 10 17 0 20 -16 4 -26 -6 -3 -8 -17 -5 -30 7 -28 -8 -32 -23 -7 -10 17 -10 17 -11 1 0 -10 -4 -18 -10 -18 -11 0 -13 33 -4 79 4 17 13 31 20 31 8 0 14 -3 14 -6z m214 -10 c22 -22 20 -25 -11 -22 -24 3 -28 -1 -31 -24 -4 -30 6 -36 26 -16 17 17 28 2 12 -17 -25 -30 -70 -11 -70 30 0 21 33 65 50 65 5 0 16 -7 24 -16z m386 11 c0 -26 -24 -105 -32 -105 -6 0 -8 12 -4 31 3 17 6 42 6 55 0 15 6 24 15 24 8 0 15 -2 15 -5z m-700 -15 c0 -5 -6 -10 -14 -10 -16 0 -26 -21 -26 -56 0 -15 -6 -24 -16 -24 -13 0 -15 7 -9 40 6 33 4 40 -10 40 -9 0 -13 5 -10 10 3 6 24 10 46 10 21 0 39 -4 39 -10z m524 -6 c4 -9 1 -22 -5 -30 -6 -7 -8 -22 -4 -34 5 -14 2 -20 -9 -20 -12 0 -16 10 -16 34 0 58 20 87 34 50z m-479 -14 c4 -6 4 -24 0 -40 -5 -23 -12 -30 -31 -30 -26 0 -47 31 -26 38 7 2 10 8 6 13 -3 5 -2 14 1 19 8 13 42 13 50 0z m153 -17 c3 -18 -2 -23 -20 -24 -17 -1 -18 -3 -5 -6 23 -6 22 -23 -2 -23 -31 0 -46 26 -32 56 14 32 54 30 59 -3z m199 11 c10 -27 -14 -66 -40 -62 -43 6 -30 78 15 78 10 0 21 -7 25 -16z m76 3 c8 -22 -4 -67 -19 -67 -10 0 -12 9 -7 32 4 22 3 29 -5 24 -7 -4 -12 -18 -12 -32 0 -15 -6 -24 -15 -24 -15 0 -14 19 1 68 5 16 50 16 57 -1z m104 -5 c-10 -10 -17 -26 -17 -35 0 -16 -18 -33 -26 -24 -3 3 -2 21 1 41 6 30 11 36 33 36 24 0 24 -1 9 -18z m71 -10 c4 -28 -14 -52 -39 -52 -23 0 -33 33 -17 60 17 27 52 22 56 -8z"/> </g> </svg> 