 <svg  version="1.0" xmlns="http://www.w3.org/2000/svg"  width="32.000000pt" height="32.000000pt" viewBox="0 0 32.000000 32.000000"  preserveAspectRatio="xMidYMid meet">  <g transform="translate(0.000000,32.000000) scale(0.100000,-0.100000)" fill="#5734b7" stroke="none"> <path d="M88 298 c-90 -52 -90 -203 0 -248 17 -8 32 -23 32 -32 0 -11 8 -18 19 -18 27 0 35 17 11 23 -17 4 -20 14 -20 66 l0 61 40 0 40 0 0 -65 c0 -51 -3 -65 -15 -65 -8 0 -15 -4 -15 -10 0 -16 37 -11 44 6 11 30 7 151 -6 161 -7 5 -31 9 -53 9 -33 -1 -40 -5 -45 -26 l-6 -25 -8 23 c-12 35 17 72 57 73 18 1 24 3 14 6 -34 9 -64 -6 -77 -37 -10 -25 -10 -34 4 -55 23 -34 19 -55 -4 -26 -24 28 -26 78 -5 108 24 34 80 40 116 14 24 -18 28 -19 22 -4 -6 16 -5 16 10 4 9 -7 17 -22 17 -33 0 -13 5 -18 14 -15 10 4 16 -3 19 -21 4 -24 4 -23 6 6 2 54 -27 102 -73 123 -54 24 -93 23 -138 -3z m116 -2 c39 -16 76 -53 76 -75 0 -9 -9 -2 -20 16 -25 41 -48 53 -105 53 -38 0 -52 -5 -76 -29 -16 -16 -29 -38 -29 -48 0 -13 6 -9 20 14 10 17 28 37 39 42 29 16 84 13 107 -5 19 -15 19 -16 -1 -8 -52 19 -81 16 -113 -11 -42 -35 -44 -89 -6 -134 27 -33 23 -42 -8 -14 -10 9 -18 11 -18 5 0 -6 12 -20 28 -32 23 -19 23 -20 2 -8 -92 55 -87 181 11 230 41 22 50 22 93 4z"/> </g> </svg> 